<svg width="1920" height="279" viewBox="0 0 1920 279" fill="none" xmlns="http://www.w3.org/2000/svg">
<path d="M1925 279.103H-5H-23C-28.5228 279.103 -33 274.626 -33 269.103V105.103C-30.3333 75.7698 -1.4 34.7031 93 105.103C187.4 175.503 321.667 134.437 377 105.103C490.333 39.1032 726.6 -63.6968 765 53.1032C803.121 169.054 1023.1 155.311 1130.66 133.582C1132.23 133.263 1133.6 132.61 1134.86 131.605C1208.24 72.8826 1397.8 -17.2566 1585 81.1031C1749.01 167.275 1863.51 134.926 1915.66 97.8499C1923.09 92.5698 1935 97.6428 1935 106.756V269.103C1935 274.626 1930.52 279.103 1925 279.103Z" fill="#005AC4"/>
</svg>
